<?xml version="1.0" encoding="UTF-8"?>
<svg xmlns="http://www.w3.org/2000/svg" xmlns:xlink="http://www.w3.org/1999/xlink" viewBox="0 0 64 64" width="64px" height="64px">
<g id="surface946987">
<path style=" stroke:none;fill-rule:nonzero;fill:rgb(90.196079%,49.411765%,13.333334%);fill-opacity:1;" d="M 32 6 C 17.640625 6 6 17.640625 6 32 C 6 46.359375 17.640625 58 32 58 C 46.359375 58 58 46.359375 58 32 C 58 17.640625 46.359375 6 32 6 Z M 42.324219 43 C 41.105469 39.195312 38.066406 36.253906 34.046875 35.851562 L 34.046875 43 L 33.429688 43 C 22.496094 43 16.261719 35.492188 16 23 L 21.476562 23 C 21.65625 32.167969 25.695312 36.054688 28.890625 36.855469 L 28.890625 23 L 34.050781 23 L 34.050781 30.90625 C 37.207031 30.566406 40.523438 26.964844 41.644531 23 L 46.800781 23 C 45.941406 27.886719 42.34375 31.488281 39.785156 32.96875 C 42.34375 34.171875 46.441406 37.3125 48 43 Z M 42.324219 43 "/>
</g>
</svg>
