<?xml version="1.0" encoding="UTF-8"?>
<svg xmlns="http://www.w3.org/2000/svg" xmlns:xlink="http://www.w3.org/1999/xlink" viewBox="0 0 50 50" width="50px" height="50px">
<g id="surface700525">
<path style=" stroke:none;fill-rule:nonzero;fill:rgb(100%,71.764708%,0%);fill-opacity:1;" d="M 25 50 C 11.191406 50 0 38.808594 0 25 C 0 11.191406 11.191406 0 25 0 C 38.808594 0 50 11.191406 50 25 C 50 38.808594 38.808594 50 25 50 Z M 25 50 "/>
<path style=" stroke:none;fill-rule:nonzero;fill:rgb(100%,100%,100%);fill-opacity:1;" d="M 25 6.601562 C 14.847656 6.601562 6.601562 14.847656 6.601562 25 C 6.601562 35.152344 14.847656 43.398438 25 43.398438 C 35.152344 43.398438 43.398438 35.152344 43.398438 25 C 43.398438 14.847656 35.152344 6.601562 25 6.601562 Z M 25 8.199219 C 34.289062 8.199219 41.800781 15.710938 41.800781 25 C 41.800781 34.289062 34.289062 41.800781 25 41.800781 C 15.710938 41.800781 8.199219 34.289062 8.199219 25 C 8.199219 15.710938 15.710938 8.199219 25 8.199219 Z M 32.992188 16.992188 C 32.726562 16.996094 32.480469 17.132812 32.335938 17.351562 L 24.175781 29.382812 L 18.34375 23.96875 C 18.136719 23.769531 17.835938 23.695312 17.558594 23.78125 C 17.28125 23.863281 17.070312 24.089844 17.007812 24.371094 C 16.945312 24.65625 17.039062 24.949219 17.257812 25.140625 L 24.453125 31.820312 L 33.664062 18.25 C 33.835938 18 33.855469 17.679688 33.710938 17.414062 C 33.570312 17.148438 33.292969 16.984375 32.992188 16.992188 Z M 32.992188 16.992188 "/>
</g>
</svg>
